<?xml version="1.0" standalone="no"?>
<!DOCTYPE svg PUBLIC "-//W3C//DTD SVG 20010904//EN"
 "http://www.w3.org/TR/2001/REC-SVG-20010904/DTD/svg10.dtd">
<svg version="1.0" xmlns="http://www.w3.org/2000/svg"
 width="434.000000pt" height="434.000000pt" viewBox="0 0 434.000000 434.000000"
 preserveAspectRatio="xMidYMid meet">
<metadata>
Created by potrace 1.14, written by Peter Selinger 2001-2017
</metadata>
<g transform="translate(0.000000,434.000000) scale(0.100000,-0.100000)"
fill="#000000" stroke="none">
<path d="M2400 3160 l-145 -5 0 -60 0 -60 97 -5 96 -5 -69 -180 c-39 -99 -79
-202 -89 -230 -9 -27 -29 -76 -43 -107 -14 -32 -24 -58 -22 -58 6 0 -52 -131
-60 -133 -4 -1 -20 32 -35 73 -15 41 -32 86 -38 100 -5 14 -10 28 -11 32 -1 5
-12 33 -26 64 -14 31 -25 60 -25 65 0 5 -9 28 -19 52 -11 23 -31 72 -45 110
-14 37 -37 96 -51 131 -14 36 -25 69 -25 75 0 7 32 11 88 11 48 0 92 4 98 8 7
4 11 31 10 62 l-1 55 -731 3 -731 2 1 -62 1 -63 200 -1 200 -1 12 -24 c7 -13
51 -148 99 -299 47 -151 99 -315 114 -365 16 -49 49 -157 75 -240 25 -82 49
-157 52 -165 3 -8 7 -20 8 -25 3 -12 96 -309 124 -395 10 -30 38 -118 62 -195
23 -77 44 -142 45 -144 2 -2 25 2 51 8 l49 12 -118 702 c-64 386 -120 720
-123 742 -3 22 -13 78 -21 125 -34 189 -43 253 -39 260 13 21 44 -5 60 -48 9
-26 21 -56 25 -67 12 -25 172 -435 210 -535 15 -41 36 -93 46 -115 10 -22 18
-42 19 -45 0 -3 31 -84 68 -180 68 -174 79 -200 96 -242 26 -61 159 -406 166
-428 10 -32 22 -40 66 -40 l37 0 72 183 c40 100 79 196 85 212 7 17 43 109 80
205 70 182 199 510 215 545 6 11 41 101 79 200 136 352 134 347 159 356 24 9
24 9 17 -43 -4 -29 -9 -62 -11 -73 -4 -20 -61 -355 -70 -410 -2 -16 -11 -66
-18 -110 -8 -44 -14 -87 -15 -95 0 -8 -18 -118 -40 -245 -22 -126 -43 -246
-46 -265 -3 -19 -12 -75 -21 -125 -8 -49 -17 -101 -19 -115 -2 -14 -16 -96
-31 -183 -14 -87 -24 -161 -21 -164 7 -6 89 -25 92 -21 3 3 137 428 211 668
24 80 51 163 58 185 24 70 51 160 51 170 0 6 3 15 7 20 3 6 33 98 67 205 34
107 66 206 71 220 20 58 63 206 63 218 0 6 4 12 9 12 4 0 8 7 8 15 0 8 9 43
21 77 l20 63 202 0 202 0 3 63 3 62 -198 0 c-109 0 -371 1 -583 3 -212 1 -450
0 -530 -3z"/>
</g>
</svg>
